<?xml version="1.0" encoding="utf-8"?>
<!-- Generator: Adobe Illustrator 17.1.0, SVG Export Plug-In . SVG Version: 6.00 Build 0)  -->
<!DOCTYPE svg PUBLIC "-//W3C//DTD SVG 1.1//EN" "http://www.w3.org/Graphics/SVG/1.1/DTD/svg11.dtd">
<svg version="1.1" id="Layer_1" xmlns="http://www.w3.org/2000/svg" xmlns:xlink="http://www.w3.org/1999/xlink" x="0px" y="0px"
	 viewBox="0 0 250 185" enable-background="new 0 0 250 185" xml:space="preserve">
<rect fill="#FFFFFF" width="250" height="185"/>
<g>
	<polygon fill-rule="evenodd" clip-rule="evenodd" fill="#D1232A" points="23.5,61.4 226.5,30.9 226.5,124.2 23.5,93.9 	"/>
	<g>
		<path fill="#FFFFFF" d="M38.6,86.6c-3.9,0-6.9-1.8-8.7-3.7l1.8-2.2c1.6,1.4,3.7,2.4,6.2,2.4c1.5,0,2.4-0.7,2.4-1.5
			c0-1-1.3-1.6-4.3-2.7c-3.7-1.4-5.5-3.4-5.5-5.8c0-3,2.8-5.6,7.4-5.6c3.4,0,6.6,1.6,8.3,2.9l-1.6,2.4c-1.7-1-3.4-1.7-5.9-1.7
			c-1.1,0-1.8,0.5-1.8,1.2c0,0.6,0.8,1.4,3.4,2.3c5.2,1.9,6.7,4.3,6.6,6.5C46.8,83.7,43.9,86.6,38.6,86.6"/>
		<path fill="#FFFFFF" d="M56.2,83.2h0.8V86h-3.7c-2.2,0-4-1.8-4-4v-4.2h-2v-3.3h2v-5.7h6.1v5.7h3.1v3.3h-3.1v4.5
			C55.4,82.8,55.8,83.2,56.2,83.2"/>
		<path fill="#FFFFFF" d="M72.4,86v-3.2c0,0-0.5,1.1-1.3,1.9c-0.6,0.6-2.1,1.9-4.3,1.9c-4.1,0-6.2-1.9-6.2-3.7v-8.4h6.1v6.9
			c0,0.6,0.5,1.7,2.4,1.7c1.8,0,2.3-1.1,2.3-1.7v-6.9h5.2V86H72.4z"/>
		<path fill="#FFFFFF" d="M88.7,77.5v5.6c-0.3,0.1-0.7,0.2-1.2,0.2c-2.2,0-3.7-1.4-3.7-3c0-1.7,1.5-3,3.7-3
			C88.1,77.3,88.5,77.4,88.7,77.5 M88.7,74.1C88.1,74,87.5,74,86.8,74c-4.9,0-8.8,2.8-8.8,6.3c0,3.5,4,6.3,8.8,6.3
			c2.2,0,3.7-0.7,5.9-0.7c1,0,1.7,0.5,2.1,0.7v-22h-6.1V74.1z"/>
		<path fill="#FFFFFF" d="M100.7,72.3c-1.7,0-3-1.4-3-3c0-1.6,1.4-3,3-3c1.7,0,3,1.4,3,3C103.7,71,102.3,72.3,100.7,72.3 M97.7,74.5
			h6.1V86h-6.1V74.5z"/>
		<path fill="#FFFFFF" d="M117.6,80.3c0,1.7-1.4,3-3,3c-1.7,0-3-1.4-3-3c0-1.7,1.4-3,3-3C116.2,77.3,117.6,78.6,117.6,80.3
			 M123.4,80.3c0-3.5-4-6.3-8.8-6.3c-4.9,0-8.8,2.8-8.8,6.3c0,3.5,4,6.3,8.8,6.3C119.5,86.6,123.4,83.8,123.4,80.3"/>
		<path fill="#FFFFFF" d="M139.1,86.6c-3.9,0-6.9-1.8-8.7-3.7l1.8-2.2c1.6,1.4,3.7,2.4,6.2,2.4c1.5,0,2.4-0.7,2.4-1.5
			c0-1-1.3-1.6-4.3-2.7c-3.7-1.4-5.5-3.4-5.5-5.8c0-3,2.8-5.6,7.4-5.6c3.4,0,6.6,1.6,8.3,2.9l-1.6,2.4c-1.7-1-3.4-1.7-5.9-1.7
			c-1.1,0-1.8,0.5-1.8,1.2c0,0.6,0.8,1.4,3.4,2.3c5.2,1.9,6.7,4.3,6.6,6.5C147.2,83.7,144.4,86.6,139.1,86.6"/>
		<polygon fill="#FFFFFF" points="155.5,86 149.4,86 149.4,64.6 155.5,64.6 155.5,80.3 161.3,74.5 165.4,74.5 160.8,79.1 165.8,86 
			158.2,86 155.5,82.1 		"/>
		<path fill="#FFFFFF" d="M177.2,80.3c0,1.7-1.4,3-3,3c-1.6,0-3-1.4-3-3c0-1.7,1.4-3,3-3C175.8,77.3,177.2,78.6,177.2,80.3
			 M183,80.3c0-3.5-4-6.3-8.8-6.3c-4.9,0-8.8,2.8-8.8,6.3c0,3.5,4,6.3,8.8,6.3C179,86.6,183,83.8,183,80.3"/>
		<path fill="#FFFFFF" d="M196,80.3c0,1.7-1.4,3-3,3c-1.6,0-3-1.4-3-3c0-1.7,1.4-3,3-3C194.6,77.3,196,78.6,196,80.3 M201.8,80.3
			c0-3.5-4-6.3-8.8-6.3c-4.9,0-8.8,2.8-8.8,6.3c0,3.5,4,6.3,8.8,6.3C197.8,86.6,201.8,83.8,201.8,80.3"/>
		<path fill="#FFFFFF" d="M214.8,80.3c0,1.7-1.5,3-3.7,3c-0.5,0-1-0.1-1.2-0.2v-5.6c0.3-0.1,0.7-0.2,1.2-0.2
			C213.3,77.3,214.8,78.6,214.8,80.3 M220.7,80.3c0-3.5-4-6.3-8.8-6.3c-2.2,0-3.7,0.7-5.9,0.7c-1,0-1.7-0.4-2.1-0.7v17.6h6.1v-5.1
			c0.6,0.1,1.2,0.2,1.9,0.2C216.7,86.6,220.7,83.8,220.7,80.3"/>
	</g>
</g>
<g>
	<path fill="#D1232A" d="M44.8,151.8l1.3-1.6c0.7,0.6,1.3,0.9,2,0.9c0.8,0,1.2-0.4,1.2-1v0c0-0.6-0.5-1-1.2-1
		c-0.5,0-0.9,0.2-1.3,0.4l-1.4-0.8l0.2-4.3h5.6v1.9h-3.8l-0.1,1.3c0.4-0.2,0.8-0.3,1.3-0.3c1.5,0,2.9,0.8,2.9,2.7v0
		c0,1.9-1.4,3-3.5,3C46.7,153.1,45.7,152.6,44.8,151.8z"/>
	<path fill="#D1232A" d="M55.9,148.8L55.9,148.8c0-2.5,1.9-4.4,4.4-4.4c1.7,0,2.8,0.7,3.6,1.8l-1.8,1.4c-0.5-0.6-1-1-1.8-1
		c-1.2,0-2,1-2,2.2v0c0,1.3,0.8,2.2,2,2.2c0.9,0,1.4-0.4,1.9-1l1.8,1.2c-0.8,1.1-1.9,1.9-3.7,1.9C57.8,153.1,55.9,151.3,55.9,148.8z
		"/>
	<path fill="#D1232A" d="M65,144.6h2.3v8.4H65V144.6z"/>
	<path fill="#D1232A" d="M69.1,144.6h2.2l3.5,4.4v-4.4H77v8.4h-2l-3.6-4.6v4.6h-2.3V144.6z"/>
	<path fill="#D1232A" d="M78.7,144.6h6.8v2H81v1.3h4v1.8h-4v1.3h4.5v2h-6.8V144.6z"/>
	<path fill="#D1232A" d="M87,144.6h2.5l2,3.2l2-3.2h2.5v8.4h-2.3v-4.8l-2.1,3.3h0l-2.1-3.3v4.8H87V144.6z"/>
	<path fill="#D1232A" d="M100.4,144.5h2.2l3.6,8.5h-2.5l-0.6-1.5h-3.2l-0.6,1.5h-2.4L100.4,144.5z M102.4,149.7l-0.9-2.4l-0.9,2.4
		H102.4z"/>
	<path fill="#D1232A" d="M105.9,148.1c0.8-0.1,1.2-0.5,1.2-1.1h-0.9v-2.3h2.4v1.9c0,1.8-1,2.4-2.5,2.4L105.9,148.1z"/>
	<path fill="#D1232A" d="M109.4,151.7l1.3-1.5c0.8,0.7,1.8,1,2.7,1c0.6,0,1-0.2,1-0.6v0c0-0.3-0.3-0.5-1.4-0.8
		c-1.8-0.4-3.2-0.9-3.2-2.6v0c0-1.6,1.2-2.7,3.2-2.7c1.4,0,2.5,0.4,3.5,1.1l-1.2,1.6c-0.8-0.5-1.6-0.8-2.4-0.8
		c-0.6,0-0.8,0.2-0.8,0.5v0c0,0.4,0.3,0.6,1.5,0.8c1.9,0.4,3.1,1,3.1,2.6v0c0,1.7-1.4,2.7-3.4,2.7
		C111.8,153.1,110.4,152.7,109.4,151.7z"/>
	<path fill="#D1232A" d="M121.2,144.6h6.8v2h-4.4v1.3h4v1.8h-4v1.3h4.5v2h-6.8V144.6z"/>
	<path fill="#D1232A" d="M129.4,144.6h2.2l3.5,4.4v-4.4h2.3v8.4h-2l-3.6-4.6v4.6h-2.3V144.6z"/>
	<path fill="#D1232A" d="M142.2,144.6h6.7v2h-4.4v1.4h4v1.9h-4v3h-2.3V144.6z"/>
	<path fill="#D1232A" d="M150.2,144.6h2.3v8.4h-2.3V144.6z"/>
	<path fill="#D1232A" d="M154.2,144.6h2.3v6.4h4.1v2h-6.4V144.6z"/>
	<path fill="#D1232A" d="M161.6,144.6h2.5l2,3.2l2-3.2h2.5v8.4h-2.3v-4.8l-2.1,3.3h0l-2.1-3.3v4.8h-2.3V144.6z"/>
	<path fill="#D1232A" d="M171.8,148.8L171.8,148.8c0-2.5,1.9-4.4,4.4-4.4c1.7,0,2.8,0.7,3.6,1.8l-1.8,1.4c-0.5-0.6-1-1-1.8-1
		c-1.2,0-2,1-2,2.2v0c0,1.3,0.8,2.2,2,2.2c0.9,0,1.4-0.4,1.9-1l1.8,1.2c-0.8,1.1-1.9,1.9-3.7,1.9
		C173.8,153.1,171.8,151.3,171.8,148.8z"/>
	<path fill="#D1232A" d="M183.8,144.5h2.2l3.6,8.5h-2.5l-0.6-1.5h-3.2l-0.6,1.5h-2.4L183.8,144.5z M185.8,149.7l-0.9-2.4l-0.9,2.4
		H185.8z"/>
	<path fill="#D1232A" d="M190.5,144.6h6.7v2h-4.4v1.4h4v1.9h-4v3h-2.3V144.6z"/>
	<path fill="#D1232A" d="M198.4,144.6h6.8v2h-4.5v1.3h4v1.8h-4v1.3h4.5v2h-6.8V144.6z M201.9,141.8l2.1,0.7l-1.8,1.5h-1.6
		L201.9,141.8z"/>
</g>
<g>
	
		<image overflow="visible" width="132" height="143" id="ncDSdK_1_" xlink:href="768C42E5B87C9EB3.jpg"  transform="matrix(1 0 0 1 282.907 -56.995)">
	</image>
</g>
<line fill="none" stroke="#E2E2E2" stroke-miterlimit="10" x1="0" y1="184.5" x2="250" y2="184.5"/>
</svg>
